<?xml version="1.0" standalone="no"?>
<!DOCTYPE svg PUBLIC "-//W3C//DTD SVG 20010904//EN"
 "http://www.w3.org/TR/2001/REC-SVG-20010904/DTD/svg10.dtd">
<svg version="1.0" xmlns="http://www.w3.org/2000/svg"
 width="1200.000000pt" height="1200.000000pt" viewBox="0 0 1200.000000 1200.000000"
 preserveAspectRatio="xMidYMid meet">
<metadata>
Created by potrace 1.11, written by Peter Selinger 2001-2013
</metadata>
<g transform="translate(0.000000,1200.000000) scale(0.100000,-0.100000)"
fill="#000000" stroke="none">
<path d="M4949 10536 c-2 -2 -47 -6 -99 -10 -118 -8 -186 -15 -225 -21 -16 -3
-48 -8 -70 -11 -22 -3 -74 -11 -115 -19 -41 -8 -91 -16 -110 -19 -19 -3 -109
-24 -200 -47 -505 -126 -981 -339 -1420 -632 -87 -59 -301 -218 -345 -258 -16
-14 -68 -59 -115 -99 -179 -154 -444 -438 -599 -645 -29 -38 -58 -77 -64 -85
-204 -261 -476 -794 -608 -1190 -38 -114 -48 -151 -95 -325 -42 -159 -84 -378
-100 -520 -3 -33 -8 -67 -9 -76 -2 -9 -6 -52 -10 -95 -4 -43 -11 -110 -15
-149 -8 -72 -5 -688 4 -738 2 -15 7 -60 11 -100 4 -40 8 -79 10 -87 1 -8 6
-44 10 -80 4 -36 9 -72 10 -80 2 -8 10 -55 19 -105 9 -49 24 -121 32 -160 9
-38 18 -81 20 -95 3 -14 9 -39 15 -56 5 -17 11 -40 14 -52 14 -77 133 -438
180 -547 7 -16 25 -59 40 -95 175 -413 447 -842 759 -1196 102 -116 327 -337
436 -429 52 -44 97 -82 100 -86 9 -11 253 -190 330 -242 515 -349 1153 -600
1761 -696 249 -39 349 -46 669 -46 400 1 623 25 974 110 132 31 498 147 569
179 18 8 61 27 97 41 111 45 360 168 360 177 0 5 -8 11 -17 14 -10 3 -41 16
-68 29 -28 14 -56 25 -62 25 -7 0 -51 -18 -100 -41 -180 -84 -369 -157 -542
-210 -52 -16 -97 -29 -100 -29 -3 0 75 83 174 184 145 149 189 188 224 201 24
8 46 15 49 15 3 0 -30 -36 -74 -79 -288 -287 -292 -292 -194 -253 14 5 105 93
202 194 143 148 187 188 228 205 27 12 50 20 50 18 0 -3 -33 -37 -234 -243
-65 -67 -114 -122 -108 -122 5 0 29 9 53 19 32 14 96 73 229 211 101 106 204
203 227 217 41 24 45 24 76 10 97 -46 232 -86 344 -102 93 -13 111 -15 188
-16 356 -4 688 142 785 347 35 73 40 105 30 189 -22 174 -31 242 -35 265 -2
14 -6 48 -10 75 -3 28 -8 64 -10 80 -3 17 -12 86 -20 155 -9 69 -18 135 -20
148 -3 16 22 64 76 154 83 135 214 394 270 533 73 184 182 539 204 664 3 19 7
37 9 40 5 7 52 266 62 341 4 30 8 57 9 60 1 5 6 52 21 198 31 296 36 840 9
1107 -2 22 -7 69 -10 105 -8 80 -14 134 -20 181 -3 20 -8 54 -11 75 -55 397
-173 810 -338 1187 l-17 39 38 -6 c21 -3 70 -8 108 -12 39 -3 86 -7 105 -9 64
-7 195 -18 215 -18 24 0 197 13 240 19 17 2 68 6 115 9 47 4 92 8 100 10 8 2
56 7 105 11 50 3 104 8 120 10 17 2 64 6 105 9 41 3 89 7 105 10 17 2 66 7
110 10 44 4 96 8 115 10 19 2 69 7 110 10 41 3 89 8 107 10 28 4 31 2 28 -16
-2 -11 -7 -47 -10 -80 -4 -33 -8 -70 -10 -81 -3 -11 -7 -46 -10 -77 -3 -31 -8
-67 -10 -81 -6 -29 -32 -232 -40 -305 -3 -27 -7 -61 -10 -75 -2 -14 -7 -50
-10 -80 -3 -30 -8 -62 -10 -70 -2 -8 -6 -40 -10 -70 -3 -30 -8 -71 -11 -90 -7
-54 -14 -101 -20 -150 -3 -25 -7 -55 -9 -66 -2 -12 -6 -48 -10 -80 -4 -33 -9
-70 -11 -84 -2 -14 -6 -50 -10 -80 -3 -30 -8 -64 -10 -75 -2 -11 -6 -40 -9
-65 -3 -25 -10 -80 -15 -122 -15 -111 -19 -136 -25 -198 -4 -30 -8 -62 -10
-70 -2 -8 -7 -42 -10 -75 -3 -33 -8 -71 -10 -85 -8 -46 -17 -112 -30 -220 -3
-19 -7 -51 -9 -70 -3 -19 -8 -54 -11 -77 -3 -24 -7 -61 -10 -83 -3 -21 -7 -52
-9 -67 -2 -15 -7 -48 -10 -73 -4 -25 -8 -61 -11 -80 -3 -30 -24 -190 -40 -315
-3 -22 -8 -58 -11 -80 -3 -22 -7 -51 -9 -65 -2 -14 -6 -50 -10 -80 -3 -30 -8
-66 -10 -80 -4 -23 -8 -56 -20 -150 -8 -61 -36 -274 -40 -300 -2 -14 -7 -50
-10 -80 -3 -30 -8 -68 -10 -85 -3 -16 -7 -46 -9 -65 -9 -72 -18 -136 -22 -160
-2 -14 -6 -50 -9 -80 -4 -30 -10 -80 -15 -110 -5 -30 -12 -80 -15 -110 -4 -30
-8 -66 -10 -80 -2 -14 -7 -50 -10 -80 -4 -30 -9 -63 -11 -73 -2 -10 -6 -45 -9
-78 -4 -33 -8 -68 -10 -78 -2 -10 -6 -42 -10 -72 -3 -30 -8 -65 -10 -79 -5
-30 -13 -88 -20 -150 -3 -25 -7 -56 -10 -70 -5 -27 -15 -116 -20 -165 -1 -16
4 -55 11 -85 52 -200 308 -348 688 -395 56 -7 199 -7 236 -1 14 3 48 7 75 11
212 26 427 122 530 237 88 98 106 176 80 353 -7 50 -16 114 -19 144 -4 30 -9
64 -11 75 -2 12 -7 48 -11 81 -3 33 -8 69 -9 80 -2 11 -6 43 -9 71 -4 28 -8
60 -11 72 -2 11 -6 47 -10 79 -5 53 -20 162 -30 223 -2 14 -6 50 -10 81 -3 31
-7 65 -9 75 -2 11 -7 44 -10 75 -4 31 -8 65 -10 75 -2 11 -7 46 -11 79 -11
100 -40 320 -50 385 -2 14 -7 50 -10 80 -3 30 -8 66 -10 80 -2 14 -11 81 -20
150 -9 69 -18 136 -20 150 -1 14 -6 50 -10 80 -3 30 -10 82 -15 115 -5 33 -11
85 -15 115 -3 30 -8 66 -10 80 -6 34 -14 97 -19 145 -3 22 -7 56 -10 75 -3 19
-10 73 -16 120 -14 115 -20 160 -25 190 -2 14 -7 52 -10 85 -4 33 -8 67 -11
75 -2 8 -6 38 -9 65 -3 28 -10 85 -15 127 -6 43 -13 90 -15 105 -1 16 -6 46
-9 68 -18 135 -38 286 -42 320 -2 22 -6 58 -9 80 -3 22 -10 72 -15 110 -5 39
-12 90 -15 115 -4 25 -8 56 -10 70 -2 14 -7 50 -10 80 -3 30 -8 66 -10 80 -2
14 -11 81 -20 150 -9 69 -18 136 -20 150 -2 14 -6 46 -9 72 -3 26 -8 62 -10
80 -3 18 -10 74 -16 123 -7 50 -14 101 -16 115 -2 14 -7 48 -10 75 -3 28 -7
61 -9 75 -3 14 -7 50 -11 80 -3 30 -10 76 -14 102 -8 55 -10 54 90 62 36 3 99
9 140 12 41 4 85 8 97 8 34 2 40 16 7 17 -16 0 -36 2 -46 4 -9 2 -56 6 -105
10 -48 3 -106 8 -128 10 -22 2 -71 7 -110 10 -38 3 -86 8 -105 10 -19 2 -69 7
-110 10 -41 3 -86 8 -100 10 -14 2 -64 7 -112 10 -48 3 -96 8 -107 10 -11 2
-62 7 -113 10 -51 3 -105 8 -121 10 -29 4 -155 15 -222 20 -71 6 -179 16 -215
20 -19 3 -69 7 -110 10 -41 3 -84 7 -95 9 -20 3 -20 13 -25 414 l-5 411 -56
-49 -55 -48 0 -357 c1 -196 -1 -360 -4 -363 -6 -9 -8 -9 -105 -16 -44 -4 -102
-9 -130 -12 -72 -7 -130 -12 -215 -19 -41 -4 -79 -8 -84 -8 -4 -1 -37 45 -72
101 -35 57 -101 156 -146 219 l-81 116 37 113 c40 123 46 132 211 298 39 39
86 91 105 116 118 150 161 200 216 255 230 228 394 291 634 242 108 -23 255
-102 335 -183 78 -77 34 -128 -225 -259 -123 -63 -177 -95 -225 -134 -28 -23
-29 -24 -5 -16 14 4 43 16 65 25 22 10 121 51 220 91 262 108 346 164 331 222
-7 31 -99 120 -173 169 -109 72 -277 140 -403 163 -91 17 -206 17 -256 0 -136
-46 -314 -192 -473 -390 -31 -38 -58 -72 -61 -75 -3 -3 -23 -31 -44 -62 -22
-32 -81 -103 -133 -159 -109 -118 -131 -153 -170 -271 -15 -49 -31 -88 -34
-88 -3 0 -20 18 -37 39 l-32 40 28 28 c28 29 67 113 52 113 -4 0 -31 -24 -59
-52 -48 -51 -51 -52 -68 -35 -11 11 -14 21 -8 25 6 4 30 29 55 55 42 45 43 48
27 64 -16 17 -20 15 -67 -35 -44 -47 -52 -52 -71 -41 -21 11 -20 13 30 63 54
54 59 67 38 84 -10 9 -26 -1 -67 -43 -44 -45 -55 -51 -66 -40 -8 7 -14 16 -14
18 0 2 23 28 50 56 44 45 49 54 36 67 -8 7 -17 14 -20 14 -3 0 -28 -24 -56
-52 -46 -50 -50 -52 -66 -36 -16 16 -14 20 34 70 39 39 48 55 40 65 -17 21
-30 15 -78 -36 -42 -45 -47 -48 -65 -35 -18 14 -18 15 16 51 19 20 43 44 53
53 19 17 19 17 -4 30 -22 12 -27 9 -71 -37 -45 -47 -49 -49 -63 -34 -14 16
-12 22 29 67 25 27 43 54 42 59 -9 25 -40 14 -78 -29 -43 -48 -57 -54 -76 -35
-9 9 0 24 37 62 38 39 47 54 39 64 -19 22 -34 15 -77 -33 -32 -36 -45 -44 -61
-39 -12 3 -21 10 -21 14 0 4 22 29 50 56 38 37 47 52 38 62 -17 21 -30 16 -83
-36 -43 -43 -52 -48 -67 -37 -15 11 -12 18 34 66 47 50 50 54 32 67 -16 12
-24 8 -69 -37 -53 -53 -66 -58 -83 -37 -8 10 1 24 39 61 54 52 57 60 32 75
-15 8 -28 0 -70 -45 -47 -49 -55 -54 -74 -44 -21 12 -20 14 32 66 50 51 52 55
36 71 -16 16 -20 14 -75 -40 -41 -41 -63 -56 -75 -51 -9 3 -17 9 -17 13 0 3
23 29 50 58 28 29 50 55 50 59 0 4 -7 12 -16 18 -13 10 -25 2 -73 -47 -51 -53
-60 -58 -79 -48 -20 11 -19 13 34 69 29 31 54 60 54 64 0 4 -9 10 -20 13 -16
5 -32 -6 -72 -49 -49 -53 -79 -68 -93 -46 -3 6 19 36 49 67 42 43 53 60 44 70
-17 21 -28 16 -90 -47 -61 -63 -64 -65 -88 -50 -12 8 -3 21 49 74 62 63 63 64
41 76 -21 11 -28 6 -89 -53 -57 -56 -69 -64 -87 -55 -20 9 -18 14 43 75 36 35
63 66 61 67 -31 26 -41 22 -107 -46 -49 -51 -71 -67 -84 -63 -9 4 -17 11 -17
16 0 5 26 36 58 70 31 33 58 64 60 68 2 5 -7 11 -19 14 -17 5 -35 -8 -88 -63
-54 -55 -72 -68 -89 -63 -12 3 -22 8 -22 11 0 4 30 37 68 75 54 55 64 69 52
77 -26 17 -36 11 -104 -60 -60 -64 -96 -84 -110 -62 -2 4 26 39 64 77 38 39
69 73 70 77 0 4 -10 10 -21 13 -17 6 -36 -8 -100 -71 -66 -66 -81 -76 -98 -68
-19 8 -15 15 55 89 63 67 72 81 57 87 -10 3 -21 7 -25 7 -4 1 -42 -35 -85 -80
-69 -70 -82 -80 -104 -74 -26 6 -24 9 52 88 44 45 79 85 79 88 0 4 -10 9 -22
12 -18 5 -37 -10 -103 -79 -74 -77 -84 -85 -109 -78 -28 7 -27 7 59 94 l87 87
-28 7 c-26 7 -36 0 -110 -78 -63 -66 -88 -86 -109 -86 -15 0 -25 4 -23 10 2 5
41 48 87 94 81 83 83 86 60 95 -22 9 -33 1 -117 -85 -85 -86 -122 -109 -136
-86 -3 5 33 48 79 95 47 48 85 91 85 96 0 5 -9 11 -19 14 -15 4 -44 -20 -118
-95 -86 -86 -102 -99 -124 -93 -23 6 -20 11 68 102 51 53 90 100 87 105 -16
25 -53 2 -142 -92 -89 -94 -115 -110 -138 -87 -4 3 37 50 89 104 95 97 96 98
69 105 -25 7 -36 -1 -128 -97 -79 -83 -106 -105 -127 -105 -15 0 -27 3 -27 8
0 4 45 52 100 107 55 55 100 102 100 105 0 3 -13 7 -28 8 -25 2 -45 -14 -135
-108 -86 -88 -111 -109 -132 -108 -14 1 -24 6 -23 9 2 4 50 56 108 116 103
106 104 108 75 111 -26 3 -42 -9 -140 -109 -83 -85 -117 -113 -138 -115 -15
-1 -27 2 -25 6 2 5 51 59 110 119 103 105 107 111 82 117 -14 4 -28 4 -32 0
-4 -3 -59 -58 -123 -122 -97 -98 -120 -115 -142 -112 -25 3 -20 10 88 123 90
95 111 121 97 126 -28 10 -43 -1 -161 -123 -93 -97 -119 -118 -142 -118 -16 0
-29 2 -29 4 0 2 51 58 114 123 87 90 111 120 100 126 -26 15 -48 -2 -168 -128
-98 -103 -124 -125 -148 -125 -15 0 -28 2 -28 5 0 3 54 61 119 128 114 116
129 141 77 131 -12 -2 -78 -62 -147 -134 -112 -115 -130 -130 -159 -130 -33 0
-32 1 86 120 140 143 146 150 106 150 -24 0 -51 -23 -159 -135 -116 -119 -135
-135 -164 -135 -18 0 -30 2 -28 4 2 3 59 61 127 129 67 69 122 127 122 131 0
3 -13 6 -29 6 -23 0 -51 -24 -160 -136 -116 -119 -137 -137 -169 -140 l-36 -3
62 62 c34 34 93 96 133 137 68 71 70 75 48 82 -27 7 510 2 581 -6 25 -3 70 -8
100 -11 118 -14 159 -19 205 -29 11 -2 40 -7 65 -11 60 -10 65 -11 141 -29 37
-8 78 -18 90 -20 48 -10 177 -47 274 -78 55 -17 102 -32 105 -33 3 -1 14 -5
25 -9 356 -134 651 -283 930 -469 86 -58 299 -214 327 -240 8 -6 41 -36 75
-64 51 -44 63 -50 73 -38 14 17 16 16 -95 106 -305 250 -682 485 -997 623 -21
9 -53 22 -70 30 -182 79 -553 201 -706 231 -9 1 -51 10 -92 18 -97 20 -184 35
-240 42 -25 3 -52 7 -60 10 -8 2 -49 7 -90 10 -41 4 -84 9 -95 12 -24 5 -590
14 -596 9z m-91 -164 c-62 -64 -126 -128 -142 -144 -28 -27 -65 -44 -85 -36
-5 1 49 63 120 137 71 73 129 137 129 142 0 7 27 12 78 15 7 0 -38 -51 -100
-114z m-108 25 c-41 -41 -105 -106 -143 -145 -47 -48 -76 -71 -97 -74 -17 -3
-30 -2 -30 1 0 3 59 66 130 140 71 74 127 137 125 141 -2 3 17 7 43 9 l47 2
-75 -74z m-80 57 c0 -3 -15 -20 -32 -38 -18 -18 -80 -81 -138 -141 -87 -90
-112 -110 -143 -116 l-39 -7 45 47 c163 168 225 235 222 241 -2 3 10 7 28 8
17 2 33 5 36 7 6 7 21 6 21 -1z m-292 -169 c-97 -100 -150 -146 -170 -150 -16
-4 -31 -5 -33 -3 -2 2 58 68 133 146 126 131 177 170 204 155 4 -2 -56 -69
-134 -148z m-165 -35 c-100 -102 -146 -142 -167 -146 -16 -3 -34 -8 -40 -11
-14 -8 44 55 174 190 68 70 114 110 134 116 17 4 32 4 34 0 2 -4 -59 -71 -135
-149z m-29 108 c-5 -7 -69 -75 -143 -150 -99 -101 -145 -141 -170 -148 -19 -5
-36 -8 -38 -7 -1 2 61 70 140 151 128 133 163 160 210 165 5 1 5 -5 1 -11z
m-185 -55 c-8 -10 -72 -77 -143 -150 -86 -88 -141 -136 -163 -144 -19 -6 -36
-9 -38 -7 -3 2 58 69 134 148 89 93 150 148 172 156 47 17 54 17 38 -3z m-322
-200 c-117 -118 -155 -151 -192 -165 l-47 -16 24 25 c191 204 277 285 313 297
22 8 42 13 44 11 2 -2 -62 -71 -142 -152z m-57 83 c0 -6 -47 -56 -178 -189
-73 -75 -134 -128 -165 -143 -27 -14 -50 -24 -52 -22 -2 2 65 73 148 159 107
110 165 163 197 177 54 24 50 23 50 18z m-335 -218 c-204 -206 -217 -219 -262
-240 -24 -11 -46 -24 -49 -29 -3 -5 -10 -9 -16 -9 -6 0 34 46 89 103 56 56
131 134 168 172 58 60 146 120 180 124 5 1 -44 -54 -110 -121z m-221 -90
c-247 -253 -326 -328 -409 -387 l-90 -63 71 73 c335 347 396 406 451 436 32
17 60 32 63 32 2 1 -36 -41 -86 -91z m-285 -161 c-56 -56 -469 -481 -637 -655
-52 -55 -430 -445 -622 -642 -57 -59 -61 -61 -40 -25 13 22 29 47 35 55 7 8
19 29 28 45 13 27 93 112 407 436 767 790 712 736 804 797 43 29 80 52 83 52
3 0 -24 -28 -58 -63z m-451 -325 c-12 -15 -84 -90 -159 -167 -76 -77 -190
-194 -254 -260 l-117 -120 78 95 c43 52 165 182 272 288 184 182 233 227 180
164z m-452 -687 c-15 -19 -48 -67 -75 -108 -27 -40 -118 -144 -202 -231 -85
-87 -189 -195 -233 -239 -43 -45 -77 -77 -75 -72 29 73 84 146 204 270 75 77
195 202 268 277 73 76 134 138 136 138 2 0 -9 -16 -23 -35z m-256 -415 c-17
-28 -30 -54 -30 -58 0 -9 -67 -81 -261 -280 -87 -89 -154 -151 -149 -137 31
82 61 117 372 433 50 50 93 92 94 92 2 0 -10 -23 -26 -50z m9025 -184 c14
-118 32 -265 39 -306 3 -14 16 -117 31 -230 14 -113 28 -221 30 -240 3 -19 7
-55 10 -79 3 -23 7 -55 9 -70 4 -24 18 -122 31 -226 3 -22 7 -56 10 -75 2 -19
7 -53 9 -75 3 -21 10 -73 16 -115 5 -41 12 -97 15 -125 3 -27 8 -61 10 -75 3
-14 7 -47 11 -75 3 -27 7 -61 9 -75 2 -14 6 -43 9 -65 3 -22 10 -76 16 -120 6
-45 13 -99 15 -120 3 -22 7 -57 10 -77 3 -21 7 -57 10 -80 3 -24 8 -54 10 -68
3 -14 7 -47 10 -75 5 -46 20 -168 31 -240 2 -16 13 -102 24 -190 12 -88 23
-171 25 -185 2 -14 7 -50 10 -80 3 -30 7 -62 10 -70 2 -8 6 -42 10 -75 3 -33
10 -87 15 -120 5 -33 12 -82 15 -110 3 -27 7 -61 9 -75 2 -14 7 -51 11 -84 4
-32 8 -68 10 -80 4 -24 13 -94 20 -146 2 -19 6 -51 9 -70 2 -19 12 -91 21
-160 15 -122 18 -143 29 -225 3 -22 8 -58 11 -80 17 -140 26 -203 29 -225 2
-14 7 -51 11 -84 4 -32 8 -68 10 -80 2 -11 6 -43 10 -71 6 -52 7 -61 25 -190
17 -122 18 -135 26 -200 3 -33 8 -68 10 -78 2 -11 6 -45 10 -77 l6 -58 -731 0
-731 0 4 27 c3 14 12 85 21 156 8 72 18 145 20 163 9 62 14 97 20 147 3 28 8
64 10 80 3 17 9 68 15 115 6 47 13 96 15 110 2 14 6 48 10 75 3 28 8 64 10 80
3 17 9 68 15 115 14 109 17 130 29 220 6 41 13 95 16 120 5 42 12 90 20 150 2
14 6 45 10 70 3 25 7 61 10 80 3 19 7 53 9 75 3 22 12 92 20 155 8 63 18 139
21 169 4 30 8 63 11 74 2 10 6 45 9 76 4 31 8 63 10 71 3 8 7 38 10 65 3 28 7
66 10 85 2 19 7 60 11 90 4 30 8 64 10 75 2 11 11 76 20 145 8 69 17 139 19
155 4 29 31 232 60 450 8 61 21 164 30 230 8 66 17 134 20 150 2 17 11 89 20
160 9 72 18 141 20 155 2 14 7 45 10 70 12 97 17 136 20 160 4 29 13 91 20
153 3 23 8 53 10 67 2 14 7 48 10 75 3 28 8 64 10 80 3 17 9 68 15 115 6 47
13 103 16 125 7 48 12 83 19 150 4 28 8 62 11 76 2 15 6 47 9 70 9 74 15 123
20 149 2 14 7 48 10 75 6 48 11 84 15 95 4 9 18 -63 25 -124z m-5045 55 c0 -5
-6 -14 -14 -20 -12 -10 -17 -8 -26 8 -9 19 -8 21 15 21 14 0 25 -4 25 -9z m93
-29 c5 -2 -6 -19 -24 -38 -25 -26 -36 -31 -46 -23 -18 16 -16 25 10 52 20 21
35 23 60 9z m87 -32 c16 -10 9 -20 -59 -88 -33 -32 -36 -33 -48 -16 -12 16 -8
24 34 66 51 52 51 52 73 38z m-4291 -82 c-26 -67 -3 -41 -358 -405 -46 -47
-49 -44 -22 19 13 30 71 98 182 212 90 92 175 181 189 197 14 16 26 29 27 29
2 0 -7 -24 -18 -52z m4391 26 c0 -3 -32 -38 -70 -77 -67 -68 -71 -71 -85 -53
-13 18 -9 25 52 87 55 57 69 66 85 58 10 -5 18 -12 18 -15z m70 -39 c11 -13
-1 -29 -78 -108 -85 -87 -91 -92 -101 -71 -8 19 1 32 72 108 45 47 85 86 88
86 4 0 12 -7 19 -15z m80 -55 c12 -8 10 -14 -12 -37 -194 -203 -183 -194 -201
-176 -15 15 -10 23 76 110 51 52 94 98 95 103 5 13 23 12 42 0z m64 -56 c24
-9 20 -23 -21 -64 -21 -20 -75 -75 -121 -123 -81 -83 -83 -85 -94 -62 -10 21
-1 33 103 139 62 64 114 116 115 116 1 0 9 -3 18 -6z m-4695 -106 c-11 -29
-32 -66 -47 -82 -89 -95 -326 -336 -328 -333 -2 2 2 21 9 43 9 29 46 74 143
174 73 74 156 161 186 192 29 32 54 58 55 58 2 0 -7 -24 -18 -52z m4694 -71
c-185 -188 -187 -190 -191 -176 -3 8 -9 22 -14 33 -7 12 -7 16 0 12 5 -3 65
53 133 124 117 122 124 128 142 113 17 -16 14 -21 -70 -106z m-1 -137 c-118
-121 -150 -149 -155 -136 -4 10 -7 22 -7 28 0 6 57 68 127 140 70 71 132 136
137 145 7 13 10 13 27 -4 19 -19 18 -21 -129 -173z m189 89 c9 -18 7 -25 -12
-44 -91 -86 -299 -307 -299 -317 0 -7 4 -19 9 -26 8 -13 36 14 279 266 59 60
61 62 72 41 11 -19 6 -27 -43 -78 -264 -269 -297 -307 -297 -333 0 -16 3 -28
7 -28 4 0 88 84 188 186 165 170 181 184 192 166 13 -22 14 -20 -258 -300
-105 -108 -126 -134 -127 -161 0 -17 1 -31 3 -31 3 0 184 183 323 329 89 92
91 94 98 67 3 -15 3 -30 -1 -34 -4 -4 -102 -105 -219 -225 -168 -174 -214
-227 -223 -259 -7 -23 -11 -43 -9 -45 1 -2 95 92 207 208 286 297 271 282 280
267 16 -24 9 -34 -73 -120 -46 -47 -182 -187 -303 -312 -121 -125 -265 -274
-321 -331 l-100 -104 33 142 c28 122 78 285 230 747 18 56 29 77 31 63 2 -13
7 -23 11 -23 3 0 74 70 156 155 82 85 150 155 152 155 1 0 7 -10 14 -21z
m-2272 -64 c2 -86 6 -114 45 -275 43 -174 47 -198 37 -204 -4 -3 -8 -106 -8
-228 0 -184 -2 -223 -14 -226 -22 -4 -91 45 -121 87 -90 126 -102 397 -29 667
20 72 80 244 86 244 1 0 3 -29 4 -65z m-2673 -7 c-10 -51 -33 -81 -200 -253
l-176 -180 15 49 c12 41 34 68 119 155 57 58 135 139 173 179 37 39 69 72 71
72 1 0 0 -10 -2 -22z m-57 -214 c-8 -28 -36 -64 -99 -129 -49 -49 -125 -127
-169 -172 -44 -46 -82 -83 -84 -83 -3 0 0 18 7 40 9 30 51 81 180 215 93 96
170 174 172 172 2 -2 -1 -21 -7 -43z m-39 -169 c-4 -20 -14 -43 -22 -52 -24
-30 -321 -333 -323 -331 -2 2 0 17 2 35 4 22 26 54 70 100 98 103 275 283 278
283 2 0 -1 -16 -5 -35z m5248 -29 c-2 -8 -123 -137 -269 -288 -147 -150 -295
-302 -329 -338 -34 -36 -124 -128 -199 -205 -92 -93 -158 -172 -199 -235 -68
-104 -81 -112 -28 -17 66 118 106 192 138 255 34 68 48 78 22 16 -14 -34 -3
-26 93 73 59 61 212 218 338 349 127 130 273 281 325 335 75 79 96 96 103 84
4 -9 7 -22 5 -29z m32 -101 c0 -6 -48 -60 -106 -120 -238 -246 -402 -414 -646
-666 -141 -145 -299 -309 -352 -364 l-96 -100 41 76 c30 56 72 108 157 196
367 378 606 624 671 691 291 305 330 338 331 287z m-5314 -47 c-5 -25 -47 -74
-171 -203 -159 -164 -165 -169 -165 -137 0 28 14 47 94 130 52 53 127 132 167
174 41 42 76 75 78 73 2 -2 0 -19 -3 -37z m2544 -148 c36 -144 161 -298 271
-336 10 -3 30 -42 49 -95 65 -182 139 -314 264 -474 l71 -89 0 -216 c0 -191
-7 -332 -19 -396 -3 -12 -7 -39 -10 -60 -32 -210 -107 -389 -233 -555 -43 -58
-159 -171 -192 -188 -32 -17 -34 15 -3 41 37 32 145 157 166 193 9 17 -32 -21
-92 -83 -94 -98 -110 -111 -121 -98 -7 8 -11 19 -9 25 1 5 78 86 169 180 117
121 169 182 178 209 7 20 15 44 18 52 3 8 -83 -76 -192 -187 -108 -112 -201
-200 -206 -197 -24 14 0 51 99 152 345 353 342 350 342 402 0 18 -55 -36 -354
-345 -123 -127 -125 -129 -132 -101 -6 25 -1 34 32 66 21 20 136 137 254 259
173 179 216 229 221 257 3 19 3 34 -1 34 -4 0 -73 -69 -154 -152 -376 -390
-379 -393 -388 -367 -7 19 -2 30 35 68 25 25 110 114 190 196 303 313 325 337
331 368 3 16 4 32 2 34 -5 5 -66 -56 -366 -366 -191 -197 -215 -219 -222 -200
-5 14 -4 28 4 38 15 19 163 172 411 426 161 164 176 183 176 215 0 39 46 82
-457 -434 -128 -132 -156 -156 -164 -142 -5 9 -8 21 -6 26 2 5 98 107 213 226
437 450 415 426 415 464 l0 34 -106 -109 c-58 -61 -201 -208 -317 -328 -115
-119 -212 -216 -214 -214 -2 3 -6 14 -8 27 -3 17 9 36 48 75 29 29 162 167
297 306 135 139 255 263 268 275 21 20 39 84 24 84 -4 0 -23 -15 -42 -34 -34
-33 -427 -437 -543 -559 -41 -42 -61 -57 -68 -50 -6 6 -9 18 -7 27 1 8 98 113
213 232 448 462 416 426 398 446 -15 17 -20 14 -87 -55 -509 -527 -530 -548
-537 -530 -10 28 6 49 145 192 72 73 160 163 195 200 35 36 103 107 152 156
83 85 87 91 73 110 -16 22 29 65 -411 -389 -90 -92 -163 -164 -164 -159 0 4
-2 17 -4 28 -4 20 10 36 416 453 105 107 118 125 109 142 -6 11 -12 20 -14 20
-4 0 -189 -189 -381 -387 -71 -73 -132 -133 -136 -133 -5 0 -7 13 -5 29 2 22
38 65 138 168 124 127 244 250 326 336 30 31 32 37 20 56 -12 20 -16 18 -102
-71 -185 -193 -371 -384 -382 -390 -7 -5 -10 4 -9 23 1 21 17 45 52 82 28 29
88 90 133 137 45 47 125 129 177 182 76 78 93 101 88 117 -3 12 -10 21 -15 21
-4 0 -35 -28 -68 -62 -375 -389 -372 -385 -372 -349 0 29 15 49 133 169 303
310 291 296 278 321 -11 20 -19 14 -127 -96 -64 -65 -151 -155 -194 -200 -43
-46 -81 -83 -84 -83 -3 0 -6 12 -6 28 0 27 66 101 300 337 73 73 79 82 72 109
-8 28 -11 25 -187 -159 -174 -181 -180 -186 -183 -156 -3 28 9 44 106 144 177
180 232 239 232 243 0 3 -10 8 -22 13 -17 6 -29 0 -60 -33 -156 -162 -253
-256 -256 -246 -10 28 16 64 131 184 102 107 122 132 111 143 -7 7 -16 13 -21
13 -4 0 -54 -48 -110 -107 -102 -107 -103 -108 -103 -74 0 28 12 45 73 109 39
42 80 83 90 90 17 13 17 15 1 33 -17 19 -19 18 -86 -48 -58 -57 -68 -64 -68
-45 0 34 17 61 67 110 41 39 43 44 29 63 -14 21 -14 20 -45 -12 l-31 -32 0 33
c0 20 8 43 21 56 19 20 20 27 10 57 -11 32 -4 85 30 227 1 3 5 -26 10 -65 4
-38 13 -90 19 -115z m2790 92 c0 -15 -8 -35 -17 -43 -15 -13 -366 -374 -608
-624 -38 -40 -185 -191 -325 -335 -140 -144 -257 -266 -258 -271 -8 -20 -18 2
-14 29 5 34 -5 24 742 792 147 151 312 321 365 378 54 56 102 102 106 102 5 0
9 -12 9 -28z m-5360 -105 c-6 -28 -33 -62 -113 -145 -58 -59 -131 -133 -161
-166 -55 -57 -56 -58 -56 -30 0 16 4 35 9 42 13 21 323 343 327 339 2 -1 -1
-19 -6 -40z m5345 -67 c-77 -82 -147 -154 -415 -430 -378 -390 -552 -569 -679
-700 -110 -114 -111 -115 -111 -81 0 29 14 47 109 145 60 61 139 143 177 182
38 39 179 185 314 324 135 139 271 280 304 314 32 33 120 123 195 200 124 126
136 136 142 115 5 -19 -3 -34 -36 -69z m55 -50 c0 -32 2 -30 -310 -350 -158
-162 -547 -564 -631 -652 -132 -137 -311 -318 -314 -318 -2 0 -3 13 -3 29 1
32 -14 15 484 528 127 131 255 263 285 294 123 129 484 499 486 499 2 0 3 -14
3 -30z m-5416 -32 c-4 -35 -2 -32 -206 -242 -72 -74 -125 -122 -123 -111 2 11
4 28 4 38 1 10 63 82 139 159 75 78 147 151 160 164 13 13 24 24 26 24 2 0 2
-14 0 -32z m5372 -178 c-34 -35 -114 -119 -178 -185 -64 -66 -163 -168 -220
-227 -57 -59 -207 -214 -334 -345 -127 -131 -274 -283 -327 -337 -74 -76 -98
-96 -102 -83 -4 9 -5 22 -3 30 1 8 118 133 258 278 140 144 295 303 343 353
49 50 188 194 310 320 122 125 240 247 262 271 l40 43 6 -27 c4 -22 -5 -37
-55 -91z m-5393 -4 c-4 -7 -77 -85 -161 -172 -149 -153 -153 -157 -150 -122 3
31 24 58 158 197 137 142 155 158 158 136 2 -13 0 -31 -5 -39z m3098 -8 c2
-104 14 -212 26 -232 4 -7 3 -8 -4 -1 -12 12 -89 192 -99 230 -6 24 -4 25 35
25 36 0 41 -3 42 -22z m2365 -32 c-2 -14 -9 -31 -17 -39 -108 -110 -558 -575
-594 -612 -391 -408 -538 -552 -556 -548 -10 3 -19 9 -19 14 0 4 37 46 83 92
45 47 186 192 313 324 127 131 273 281 324 333 50 52 173 179 273 282 99 103
184 185 188 183 4 -3 6 -16 5 -29z m-5470 -90 c-3 -13 -33 -52 -67 -87 -120
-125 -197 -204 -223 -229 l-27 -24 5 36 c4 32 26 60 157 193 85 86 155 151
157 145 2 -6 1 -21 -2 -34z m5445 -90 c-57 -62 -557 -578 -1009 -1042 -25 -27
-30 -28 -52 -14 -12 8 -5 20 41 67 31 32 123 128 206 213 83 85 187 193 232
240 163 168 517 533 561 579 44 45 45 46 51 21 4 -19 -2 -34 -30 -64z m-5451
-38 c-1 -29 -21 -54 -156 -193 -151 -156 -155 -159 -152 -124 3 32 23 57 153
192 83 86 151 156 153 157 1 0 2 -15 2 -32z m5483 -62 c-4 -8 -75 -84 -158
-168 -206 -212 -678 -698 -756 -780 -59 -61 -66 -65 -84 -52 -18 14 -16 18 52
87 39 39 111 113 160 164 48 50 201 207 339 350 138 142 295 304 350 361 90
94 99 101 102 78 2 -14 0 -32 -5 -40z m-5483 -76 c0 -26 -23 -55 -153 -187
-145 -147 -153 -154 -152 -123 1 27 23 55 149 186 82 85 150 154 152 154 2 0
4 -14 4 -30z m5367 -181 c-68 -68 -132 -137 -143 -154 -44 -69 -127 -180 -133
-178 -4 1 -34 -42 -66 -95 -75 -124 -134 -211 -160 -238 -11 -11 -33 -37 -49
-57 -15 -21 -50 -55 -77 -78 -41 -34 -53 -39 -74 -32 -25 8 -23 11 71 108 118
123 146 157 218 265 57 85 57 85 -151 -128 -159 -162 -213 -211 -226 -206 -9
3 -17 11 -17 16 0 5 56 67 124 136 68 70 152 157 187 193 35 36 177 182 314
324 138 141 261 269 275 284 l25 26 3 -31 c3 -27 -10 -44 -121 -155z m-5371
41 c-2 -17 -7 -34 -11 -38 -4 -4 -66 -69 -138 -144 -72 -76 -135 -138 -140
-138 -4 0 -7 13 -5 29 2 22 38 65 143 174 77 80 143 146 147 146 4 1 6 -13 4
-29z m5490 -230 c-4 -98 -9 -189 -11 -202 -2 -13 -6 -59 -10 -103 -4 -44 -9
-87 -10 -96 -2 -9 -6 -40 -10 -70 -11 -93 -64 -340 -94 -439 -40 -131 -102
-280 -157 -375 -54 -94 -59 -100 -60 -77 -1 9 -4 127 -8 262 -12 456 -16 575
-22 703 -6 149 -11 137 118 299 68 85 252 278 266 278 3 0 2 -81 -2 -180z
m-5500 59 c-14 -20 -192 -204 -250 -258 l-26 -24 0 29 c0 24 25 56 143 178
128 133 142 145 145 122 2 -14 -3 -35 -12 -47z m3394 -28 c-1 -21 -27 -132
-34 -138 -2 -3 -6 38 -8 90 l-3 94 23 -15 c12 -8 22 -22 22 -31z m-3379 -83
c-9 -24 -263 -288 -272 -282 -23 14 2 56 85 142 50 51 111 115 136 141 36 39
46 45 51 32 4 -9 4 -24 0 -33z m9 -109 c0 -26 -18 -49 -109 -143 -60 -61 -118
-121 -129 -133 -25 -30 -32 -29 -32 5 0 22 27 56 132 165 72 75 133 137 135
137 2 0 3 -14 3 -31z m10 -126 c0 -22 -28 -57 -129 -162 -124 -129 -128 -133
-134 -106 -5 28 26 64 226 267 34 35 37 35 37 1z m5 -160 c-5 -6 -62 -64 -125
-128 -94 -95 -115 -113 -121 -98 -9 26 -6 31 127 170 116 122 119 125 124 97
3 -16 1 -34 -5 -41z m4195 42 c0 -8 -7 -15 -15 -15 -13 0 -14 3 -3 15 16 18
18 18 18 0z m-4174 -125 c-1 -23 -25 -54 -115 -150 -63 -66 -118 -120 -123
-120 -4 0 -8 12 -8 26 0 21 26 53 108 138 89 92 132 134 138 136 1 0 1 -13 0
-30z m19 -120 c3 -18 -17 -45 -98 -127 -56 -58 -108 -112 -116 -120 -13 -14
-16 -13 -23 8 -7 18 -3 29 21 53 161 171 205 215 208 212 2 -2 6 -13 8 -26z
m19 -139 c-3 -3 -54 -57 -112 -119 -104 -111 -107 -113 -114 -86 -8 29 -14 21
186 226 l30 30 8 -22 c5 -13 6 -26 2 -29z m25 -105 c1 -4 -47 -57 -106 -117
-98 -100 -108 -108 -115 -88 -9 25 -13 20 122 161 70 73 86 85 92 71 3 -10 7
-22 7 -27z m21 -99 c0 -14 -36 -59 -99 -125 -93 -97 -100 -102 -111 -82 -10
18 -4 28 52 87 35 36 81 84 103 107 43 45 55 48 55 13z m30 -117 c0 -8 -45
-60 -100 -114 -95 -96 -99 -99 -105 -74 -6 23 5 38 91 127 95 98 114 108 114
61z m-9 -155 c-22 -22 -62 -64 -90 -92 -55 -57 -66 -63 -73 -35 -4 13 23 48
91 118 92 96 96 99 103 75 6 -21 1 -33 -31 -66z m69 -51 c0 -13 -169 -194
-180 -194 -4 0 -10 10 -13 21 -5 17 13 41 85 115 87 89 107 100 108 58z m28
-109 c-2 -7 -40 -52 -85 -99 -77 -79 -84 -84 -94 -64 -9 17 -5 26 29 62 22 22
62 64 88 93 38 40 51 48 57 37 5 -8 7 -21 5 -29z m25 -119 c-10 -11 -48 -51
-85 -89 -63 -66 -67 -68 -77 -48 -11 19 -3 30 76 112 80 83 88 88 95 68 6 -16
3 -28 -9 -43z m4080 29 c-3 -9 -8 -14 -10 -11 -3 3 -2 9 2 15 9 16 15 13 8 -4z
m-4031 -97 c2 -10 -28 -49 -76 -98 -75 -76 -81 -80 -88 -59 -9 25 -8 27 87
125 59 61 70 66 77 32z m37 -86 c8 -16 -3 -32 -63 -95 -41 -42 -78 -77 -84
-77 -6 0 -12 8 -15 18 -2 11 22 45 67 93 39 42 74 77 78 78 4 0 12 -7 17 -17z
m-23 -190 c-62 -63 -78 -74 -86 -62 -5 8 -10 18 -10 22 0 5 32 42 72 83 69 72
72 74 86 54 13 -19 9 -25 -62 -97z m112 -13 c-8 -21 -131 -140 -141 -136 -25
8 -10 37 53 105 57 61 67 68 78 54 7 -9 11 -19 10 -23z m46 -90 c-2 -4 -31
-36 -66 -72 -48 -52 -64 -64 -75 -56 -22 19 -16 31 54 101 59 60 68 65 79 50
7 -9 10 -20 8 -23z m41 -70 c6 -18 -6 -34 -59 -88 -54 -54 -68 -63 -76 -51 -5
8 -9 18 -7 22 4 13 121 138 128 138 4 0 11 -10 14 -21z m55 -93 c0 -7 -27 -41
-60 -76 -57 -59 -62 -62 -77 -47 -16 15 -12 21 48 85 45 47 68 65 77 59 6 -5
12 -15 12 -21z m48 -79 c2 -10 -20 -42 -54 -77 -45 -47 -60 -57 -71 -49 -21
18 -16 27 44 90 57 59 75 67 81 36z m51 -75 c8 -15 -1 -29 -52 -80 -56 -56
-63 -60 -74 -44 -9 15 -2 28 46 79 31 34 59 62 63 62 4 1 12 -7 17 -17z m55
-78 c7 -18 -6 -37 -67 -98 -36 -35 -41 -37 -55 -22 -15 15 -11 21 43 76 33 33
62 60 66 60 4 0 10 -7 13 -16z m6500 -133 c3 -31 8 -67 11 -81 2 -14 6 -45 9
-70 6 -48 22 -172 30 -230 3 -19 8 -57 11 -85 4 -27 9 -64 11 -81 l5 -32 -377
0 c-207 0 -372 3 -367 8 4 4 49 42 98 85 138 120 321 307 410 420 22 28 46 57
55 66 8 8 31 38 50 66 l35 51 7 -30 c3 -17 9 -56 12 -87z m-6490 -22 c-44 -45
-61 -56 -71 -47 -20 16 -17 22 44 87 55 58 57 59 71 39 13 -18 10 -24 -44 -79z
m74 -58 c-61 -66 -73 -74 -88 -55 -11 12 -8 21 21 51 71 76 83 84 96 66 11
-14 6 -24 -29 -62z m86 -7 c26 -10 19 -22 -40 -82 -53 -54 -57 -56 -70 -37
-13 17 -10 24 38 72 29 29 53 53 54 53 1 0 9 -3 18 -6z m66 -80 c11 -13 5 -23
-40 -69 -49 -50 -55 -53 -71 -39 -16 14 -14 19 34 69 29 30 55 54 58 54 4 1
12 -6 19 -15z m68 -67 c8 -10 -3 -27 -44 -71 -51 -54 -57 -57 -72 -42 -15 15
-13 19 23 58 68 72 76 76 93 55z m22 -141 c-49 -51 -53 -53 -71 -38 -17 15
-16 18 38 73 54 56 57 58 71 38 12 -18 9 -24 -38 -73z m107 8 c15 -14 11 -21
-40 -71 -50 -51 -57 -55 -71 -41 -14 14 -10 21 37 71 29 31 53 56 55 57 2 0
11 -7 19 -16z m71 -67 c8 -10 -1 -26 -38 -65 -51 -55 -59 -59 -78 -40 -9 9 -1
24 36 64 50 55 63 62 80 41z m71 -61 c10 -12 2 -25 -40 -70 -50 -53 -53 -55
-71 -39 -18 16 -17 19 34 70 29 29 56 53 59 53 4 0 12 -6 18 -14z m71 -62 c11
-13 5 -23 -40 -69 -50 -50 -55 -53 -71 -39 -16 14 -14 19 34 69 29 30 55 55
58 55 4 0 12 -7 19 -16z m56 -104 c-71 -79 -72 -80 -93 -65 -17 13 -16 16 22
56 59 64 67 69 88 57 17 -9 15 -13 -17 -48z m88 -6 c25 -10 19 -23 -36 -80
-49 -50 -54 -52 -71 -37 -17 16 -15 19 35 70 29 29 53 53 54 53 1 0 9 -3 18
-6z m88 -58 c15 -11 11 -18 -41 -70 -53 -52 -60 -57 -79 -45 -19 12 -17 15 37
70 31 32 58 58 61 58 3 0 13 -5 22 -13z m109 -83 c4 -72 0 -178 -7 -178 -22 0
-75 41 -71 55 9 29 9 35 8 60 l-2 25 -28 -31 c-21 -24 -32 -29 -45 -22 -9 5
-16 12 -16 16 0 4 24 33 53 64 52 55 52 55 80 40 15 -9 27 -22 28 -29z m3538
-518 c-73 -74 -134 -135 -136 -135 -2 0 -3 13 -3 28 0 22 20 50 93 125 50 53
103 101 117 106 68 26 56 6 -71 -124z m-91 40 l-44 -46 2 33 c1 18 2 36 3 40
1 6 73 27 79 22 2 -1 -16 -23 -40 -49z"/>
<path d="M9300 9420 c-19 -10 -66 -49 -105 -85 -98 -92 -188 -145 -256 -150
-55 -4 -108 12 -141 42 -25 23 -22 4 6 -38 80 -118 215 -79 421 120 91 88 109
99 191 115 l69 14 -75 1 c-56 0 -84 -5 -110 -19z"/>
<path d="M7057 2207 c-43 -45 -117 -122 -165 -170 l-87 -88 60 26 c48 20 79
46 153 123 51 53 110 114 130 135 31 31 34 39 22 47 -8 5 -19 10 -25 10 -5 0
-45 -37 -88 -83z"/>
<path d="M7168 2187 c-31 -34 -65 -70 -75 -81 -17 -18 -17 -18 3 -8 39 20 184
132 184 142 0 5 -12 10 -27 10 -21 -1 -42 -16 -85 -63z"/>
</g>
</svg>
