<svg version="1.2" baseProfile="tiny" xmlns="http://www.w3.org/2000/svg" viewBox="0 0 600 600"><path fill="#FFDC69" stroke="#484F59" stroke-width="14" d="M349.4 428.4c10.8-.1 26.2-9.3 26.1-20.5V283.2c0-11.2-8.4-24.2-19.1-27.6-36.8-11.5-76.1-11.5-112.9 0-10.7 3.4-19.1 16.4-19.1 27.6v124.7c0 11.1 15.3 20.4 26.1 20.5"/><g fill="#FFDC69"><path d="M257.3 290v265.7M342.7 290v265.7"/></g><path fill="#FFDC69" d="M300 422.4v133.3M255.3 545.4h90"/><path fill="#FFDC69" stroke="#484F59" stroke-width="14" d="M340.1 207c0 22.2-18 40.2-40.1 40.2-22.2 0-40.2-18-40.2-40.2s18-40.2 40.2-40.2c22.2 0 40.1 18 40.1 40.2zM257.3 290v265.7h85.4V290M300 422.4v133.3"/><g fill="none" stroke="#484F59" stroke-width="14" stroke-miterlimit="10"><path d="M296.2 50.3v51.2M172.7 85.5l25.5 44.2M83.2 177.7l44.3 25.5M51.9 302.2H103M87 425.8l44.3-25.6M179.2 515.2l25.6-44.3M427.3 511.4l-25.5-44.3M516.8 419.2l-44.3-25.6M548.1 294.7H497M513 171.1l-44.3 25.6M420.8 81.7L395.2 126"/></g></svg>