<svg version="1.2" baseProfile="tiny" xmlns="http://www.w3.org/2000/svg" viewBox="150 -150 600 600"><path fill="#FFF" stroke="#484F59" stroke-width="16" d="M244.4-61.8h322.1v431.3H244.4z"/><path fill="#484F59" d="M299.3 32.3h256.8v12.3H299.3zM299.3 77.4h256.8v12.3H299.3zM299.3 123.8h256.8v12.3H299.3zM299.3 166.1h256.8v12.3H299.3zM299.3 207.6h256.8v12.3H299.3zM299.3 250h256.8v12.3H299.3zM299.3 289.2h256.8v12.3H299.3z"/><path fill="#FFDC69" stroke="#484F59" stroke-width="16" d="M640.7 212.1l-32.2-17.3 41-76.6-38-70.6 32.2-17.3 47.3 87.9z"/><path fill="none" d="M590.4 215.9v153.7"/><path fill="#FFDC69" stroke="#484F59" stroke-width="16" d="M636.7-23.3C636.7 2.3 616 23 590.4 23s-46.3-20.7-46.3-46.3 20.7-46.3 46.3-46.3 46.3 20.7 46.3 46.3zM639.9 28.4H537.7l-69.1 54.5 11.3 102 36.3-3.9-9.1-82 34.1-26.8v297.4h98.5V98.8z"/><path fill="none" stroke="#484F59" stroke-width="16" d="M590.4 215.9v153.7"/></svg>