<svg version="1.2" baseProfile="tiny" xmlns="http://www.w3.org/2000/svg" viewBox="150 -150 600 600"><path fill="#FFDC69" d="M533.2-46.9c0 26 21.1 47.1 47.1 47.1s47.1-21.1 47.1-47.1S606.3-94 580.3-94s-47.1 21.1-47.1 47.1z"/><path fill="#FFDC69" stroke="#484F59" stroke-width="16" d="M533.2-46.9c0 26 21.1 47.1 47.1 47.1s47.1-21.1 47.1-47.1S606.3-94 580.3-94s-47.1 21.1-47.1 47.1z"/><path fill="#FFDC69" stroke="#484F59" stroke-width="16" stroke-linejoin="bevel" d="M644.8.9H524.5l-57.6 86.7-58.4 52v52.8l88.4-80.2 39.6-59.5v296.8h87.3V39.6l35 46.4-31 53.7 33.7 19.2 43.3-75.3z"/><path fill="none" stroke="#484F59" stroke-width="16" stroke-linejoin="bevel" d="M578.5 349.5V168.7"/><g><path fill="#FF8F8F" d="M235.4 135.4h246.5v56H235.4z"/><path fill="none" stroke="#484F59" stroke-width="16" d="M235.4 190.9h246.5"/><g fill="#484F59"><path d="M279.8 214.9h-19.7v19.7h19.7zM309.4 214.9h-19.7v19.7h19.7zM338.9 214.9h-19.7v19.7h19.7zM368.5 214.9h-19.7v19.7h19.7zM398 214.9h-19.8v19.7H398zM427.5 214.9h-19.6v19.7h19.6zM457.2 214.9h-19.7v19.7h19.7zM279.8 244.3h-19.7v19.9h19.7zM309.4 244.3h-19.7v19.9h19.7zM338.9 244.3h-19.7v19.9h19.7zM368.5 244.3h-19.7v19.9h19.7zM398 244.3h-19.8v19.9H398zM427.5 244.3h-19.6v19.9h19.6zM457.2 244.3h-19.7v19.9h19.7zM279.8 274h-19.7v19.7h19.7zM309.4 274h-19.7v19.7h19.7zM338.9 274h-19.7v19.7h19.7zM368.5 274h-19.7v19.7h19.7zM398 274h-19.8v19.7H398zM427.5 274h-19.6v19.7h19.6zM457.2 274h-19.7v19.7h19.7zM279.8 303.5h-19.7v19.7h19.7zM309.4 303.5h-19.7v19.7h19.7zM338.9 303.5h-19.7v19.7h19.7zM368.5 303.5h-19.7v19.7h19.7zM398 303.5h-19.8v19.7H398zM427.5 303.5h-19.6v19.7h19.6zM457.2 303.5h-19.7v19.7h19.7z"/></g><path fill="none" stroke="#484F59" stroke-width="16" d="M235.4 135.4h246.5v212.2H235.4z"/><g fill="#FFF" stroke="#484F59" stroke-width="16"><path d="M277.8 112.7h28.1v50h-28.1zM411.4 112.7h28.1v50h-28.1z"/></g></g></svg>