<svg version="1.2" baseProfile="tiny" xmlns="http://www.w3.org/2000/svg" viewBox="150 -150 600 600"><path fill="#0272BC" d="M553.7-.7c44.1 64.2 47.4 130.5 9.5 198.6-2.7 4.8-6.4 9.1-9.6 13.6-24.4-8.4-41.5-24.9-53.4-47.3 31.2-53.8 14-149.1-66.6-169.1C368.3-21 306.2 26.7 302.5 95.2c-1.2 22.3 1.2 44 11 64.5 20 41.8 63 65.1 108.8 58.1 9-1.4 14.9-.2 20.8 7.6 11.8 15.5 27.2 27.5 44.3 39-9.3 6.1-19 8.9-28.6 11.6-9.4 2.7-19.2 4.4-30.2 6.9 16.1 7.4 31.4 12.7 47.5 15.5 16.3 2.8 32.7 2 50 1.7-4.6 16.6-8.3 32.6-13.6 48-7 20.3-21.1 27.3-42 22-13.2-3.4-24.9-10.3-36.6-16.9-27.9-15.5-54.2-33.7-83.1-47.5-23-10.9-46.7-17.7-72.5-13.7-10.8 1.7-20.3 5.5-27.2 16.8-6.8-16.4-13.2-31.7-19.5-47-1.7-4.1 1.9-5.1 4.4-6.4 13.2-7 27.3-11.3 42.2-12.8 3.9-.4 7.7-.8 11.3-1.1 1-2.8-.9-3.5-2-4.5-31.4-27.5-50.4-62-57.4-103.1-.4-2.6.9-6.2-2.6-7.9V86.5c4.1-6.9 3.6-14.9 5.4-22.4 16.7-69.6 78.5-124.8 149.3-134 42.3-5.5 81.7 2.4 118.7 23 20.1 12.4 37.5 28 52.8 46.2z"/><path fill="#A6CE3A" d="M500.1 164.2c11.9 22.4 29.1 39 53.4 47.3 44.8 15.9 83.9 6.8 117.3-27 2.9 1.4 1.7 4 1.7 6.1.1 22.1-.1 44.1.2 66.2.1 5.9-1.9 8.8-7.2 11.1-107.6 47-234-19.6-251.9-134.2-6.4-41 .7-79.8 21-116.3 4.3-7.8 8.2-8.1 15.3-4.3C467.8 23 481.1 37 491 54.7c2.6 4.6 1.6 8.5.4 13.1-8.8 33.1-8.4 65.5 8.7 96.4zM553.7-.7c-15.3-18.2-32.7-33.8-53.1-46.1 53.4-29.8 108.3-33 164.8-9.3 3.6 1.5 7.3 2.5 7.3 7.9-.2 24.9-.1 49.8-.1 77.2C637.9-6.7 598.7-16.4 553.7-.7z"/></svg>