<svg version="1.2" baseProfile="tiny" xmlns="http://www.w3.org/2000/svg" viewBox="150 -150 600 600"><path fill="#01DEE9" stroke="#484F59" stroke-width="17" stroke-miterlimit="10" d="M654.5 371.7c.3-7.7 1.9-81.1 0-92.5 0-12.3-15.5-25.9-34.7-29.6-134.4-25.4-242.6-25.4-377.1 0-19.2 3.7-34.7 17.3-34.7 29.6-1.9 11.4-.4 83.1 0 92.5"/><path fill="#FFF" d="M492.5 286.5c1.9-13.6 3.9-54.8 5.8-68.4C511 210 520.2 198 521 188c1.5-12.6 3-25.2 4.4-37.9 1.8 1.9 4.1 3.2 6.9 3.5 6.1.6 11.5-3.8 12.1-9.8l6-58.3c.6-6-3.8-11.4-9.8-12-2.3-.3-4.5.3-6.4 1.3 1.3-11.1 2.6-22.2 3.8-33.3 1-15.2 8.5-55.8-20.7-81.9-42.4-41.6-135.6-41.6-177.9 0-29.3 26.1-21.8 66.7-20.7 81.9 1.3 11.1 2.6 22.1 3.8 33.3-1.9-1.1-4.1-1.6-6.4-1.3-6 .6-10.4 6-9.8 12l6 58.3c.6 6 6 10.4 12.1 9.8 2.7-.3 5.1-1.6 6.8-3.5 1.5 12.7 2.9 25.3 4.4 37.9.9 10 10 22 22.8 30.2 1.9 13.6 3.9 54.8 5.7 68.4l58.8 52.2 69.6-52.3z"/><path fill="none" stroke="#484F59" stroke-width="17" stroke-linecap="round" stroke-linejoin="round" stroke-miterlimit="10" d="M492.5 286.5c1.9-13.6 3.9-54.8 5.8-68.4C511 210 520.2 198 521 188c1.5-12.6 3-25.2 4.4-37.9 1.8 1.9 4.1 3.2 6.9 3.5 6.1.6 11.5-3.8 12.1-9.8l6-58.3c.6-6-3.8-11.4-9.8-12-2.3-.3-4.5.3-6.4 1.3 1.3-11.1 2.6-22.2 3.8-33.3 1-15.2 8.5-55.8-20.7-81.9-42.4-41.6-135.6-41.6-177.9 0-29.3 26.1-21.8 66.7-20.7 81.9 1.3 11.1 2.6 22.1 3.8 33.3-1.9-1.1-4.1-1.6-6.4-1.3-6 .6-10.4 6-9.8 12l6 58.3c.6 6 6 10.4 12.1 9.8 2.7-.3 5.1-1.6 6.8-3.5 1.5 12.7 2.9 25.3 4.4 37.9.9 10 10 22 22.8 30.2 1.9 13.6 3.9 54.8 5.7 68.4l58.8 52.2 69.6-52.3z"/><path fill="none" stroke="#484F59" stroke-width="17" stroke-miterlimit="10" d="M456 240.1h-52.7l-46.5-23.3"/><circle fill="#FFF" stroke="#484F59" stroke-width="7" stroke-miterlimit="10" cx="603.4" cy="-39.7" r="25"/><circle fill="#FFF" stroke="#484F59" stroke-width="7" stroke-miterlimit="10" cx="678.3" cy="-39.7" r="25"/><circle fill="#FFF" stroke="#484F59" stroke-width="7" stroke-miterlimit="10" cx="603.4" cy="30.3" r="25"/><circle fill="#FFF" stroke="#484F59" stroke-width="7" stroke-miterlimit="10" cx="678.3" cy="30.3" r="25"/><g><path fill="#0D7AC2" stroke="#0D7AC2" stroke-width="7" stroke-miterlimit="10" d="M598.1-52.2l3.5 5.3c.9 1.4 1.7 2.6 2.5 4h.2c.8-1.5 1.6-2.7 2.4-4l3.4-5.2h4.8l-8.3 11.8 8.6 12.6h-5.1l-3.6-5.5c-1-1.4-1.8-2.8-2.6-4.2h-.1c-.8 1.5-1.7 2.8-2.6 4.2l-3.5 5.5h-4.9l8.7-12.5-8.3-12h4.9z"/></g><g><path fill="#AED441" stroke="#AED441" stroke-width="7" stroke-miterlimit="10" d="M672.5 18.1l3.5 5.3c.9 1.4 1.7 2.6 2.5 4h.2c.8-1.5 1.6-2.7 2.4-4l3.4-5.2h4.8l-8.4 11.7 8.6 12.6h-5.1l-3.6-5.5c-1-1.4-1.8-2.8-2.6-4.2h-.1c-.8 1.5-1.7 2.8-2.6 4.2l-3.5 5.5h-4.9l8.7-12.5-8.3-12h5v.1z"/></g></svg>